<svg width="26" height="32" viewBox="0 0 26 32" fill="none" xmlns="http://www.w3.org/2000/svg">
<path d="M16 21C18.7614 21 21 18.7614 21 16C21 13.2386 18.7614 11 16 11C13.2386 11 11 13.2386 11 16C11 18.7614 13.2386 21 16 21Z" fill="#6C47FF"/>
<path d="M25.0093 27.8382C25.4347 28.2636 25.392 28.9679 24.8921 29.3027C22.349 31.0062 19.2901 31.9997 15.9992 31.9997C12.7084 31.9997 9.64955 31.0062 7.10636 29.3027C6.60653 28.9679 6.56382 28.2636 6.98921 27.8382L10.6431 24.1843C10.9734 23.854 11.4857 23.8019 11.9014 24.0148C13.1304 24.6445 14.5234 24.9997 15.9992 24.9997C17.4751 24.9997 18.868 24.6445 20.0971 24.0148C20.5128 23.8019 21.0251 23.854 21.3554 24.1843L25.0093 27.8382Z" fill="#6C47FF"/>
<path d="M24.8928 2.697C25.3926 3.0318 25.4353 3.73609 25.0099 4.16149L21.356 7.81544C21.0258 8.14569 20.5134 8.19785 20.0978 7.98491C18.8687 7.35525 17.4758 7 15.9999 7C11.0294 7 6.99997 11.0294 6.99997 16C6.99997 17.4759 7.35522 18.8688 7.98488 20.0979C8.19782 20.5136 8.14565 21.0259 7.81541 21.3561L4.16147 25.0101C3.73607 25.4355 3.03178 25.3927 2.69698 24.8929C0.993522 22.3497 0 19.2909 0 16C0 7.16344 7.16341 0 15.9999 0C19.2908 0 22.3496 0.993529 24.8928 2.697Z" fill="#BAB1FF"/>
</svg>
