<svg width="17" height="35" viewBox="0 0 17 35" fill="none" xmlns="http://www.w3.org/2000/svg">
<path d="M11.6624 3.90099C10.1344 2.15814 8.81853 0.388057 8.54972 0.0204241C8.52141 -0.00680802 8.47895 -0.00680802 8.45066 0.0204241C8.18184 0.388057 6.86602 2.15814 5.33797 3.90099C-7.77776 19.9815 7.40368 30.8335 7.40368 30.8335L7.53101 30.9152C7.64418 32.5899 7.92716 35 7.92716 35H8.49311H9.05905C9.05905 35 9.34203 32.6035 9.45522 30.9152L9.58255 30.8199C9.59669 30.8335 24.7782 19.9815 11.6624 3.90099ZM8.49311 30.602C8.49311 30.602 7.81398 30.0438 7.63004 29.7578V29.7307L8.45066 12.2204C8.45066 12.1659 8.53556 12.1659 8.53556 12.2204L9.35617 29.7307V29.7578C9.17224 30.0438 8.49311 30.602 8.49311 30.602Z" fill="#00ED64"/>
</svg>
